<mxfile host="Electron" modified="2025-04-05T06:56:19.245Z" agent="Mozilla/5.0 (Windows NT 10.0; Win64; x64) AppleWebKit/537.36 (KHTML, like Gecko) draw.io/24.5.3 Chrome/124.0.6367.207 Electron/30.0.6 Safari/537.36" etag="oIyZQTTuHEQF64yo_rXD" version="24.5.3" type="device" pages="3">
  <diagram name="JIRA-Board" id="1Z0g-1KZ0-EMyHoFu2Hd">
    <mxGraphModel dx="1036" dy="2806" grid="1" gridSize="10" guides="1" tooltips="1" connect="1" arrows="1" fold="1" page="1" pageScale="1" pageWidth="850" pageHeight="1100" math="0" shadow="0">
      <root>
        <mxCell id="0" />
        <mxCell id="1" parent="0" />
        <mxCell id="AT0Kys5YV0iqG-KPBxFC-1" value="" style="verticalLabelPosition=bottom;verticalAlign=top;html=1;shape=mxgraph.basic.rect;fillColor2=none;strokeWidth=1;size=20;indent=5;align=center;" parent="1" vertex="1">
          <mxGeometry x="15" y="-1200" width="410" height="190" as="geometry" />
        </mxCell>
        <mxCell id="AT0Kys5YV0iqG-KPBxFC-2" value="JIRA-UI" style="text;strokeColor=none;fillColor=none;html=1;fontSize=24;fontStyle=1;verticalAlign=middle;align=center;" parent="1" vertex="1">
          <mxGeometry x="150" y="-1240" width="100" height="40" as="geometry" />
        </mxCell>
        <mxCell id="AT0Kys5YV0iqG-KPBxFC-3" value="" style="line;strokeWidth=2;direction=south;html=1;" parent="1" vertex="1">
          <mxGeometry x="100" y="-1200" width="10" height="190" as="geometry" />
        </mxCell>
        <mxCell id="AT0Kys5YV0iqG-KPBxFC-4" value="" style="line;strokeWidth=2;direction=south;html=1;" parent="1" vertex="1">
          <mxGeometry x="320" y="-1200" width="10" height="190" as="geometry" />
        </mxCell>
        <mxCell id="AT0Kys5YV0iqG-KPBxFC-5" value="" style="line;strokeWidth=2;direction=south;html=1;" parent="1" vertex="1">
          <mxGeometry x="210" y="-1200" width="10" height="190" as="geometry" />
        </mxCell>
        <mxCell id="AT0Kys5YV0iqG-KPBxFC-7" value="" style="line;strokeWidth=2;html=1;" parent="1" vertex="1">
          <mxGeometry x="15" y="-1170" width="415" height="10" as="geometry" />
        </mxCell>
        <mxCell id="AT0Kys5YV0iqG-KPBxFC-8" value="To-Do" style="text;strokeColor=none;align=center;fillColor=none;html=1;verticalAlign=middle;whiteSpace=wrap;rounded=0;" parent="1" vertex="1">
          <mxGeometry x="20" y="-1200" width="60" height="30" as="geometry" />
        </mxCell>
        <mxCell id="AT0Kys5YV0iqG-KPBxFC-9" value="In-Progress" style="text;strokeColor=none;align=center;fillColor=none;html=1;verticalAlign=middle;whiteSpace=wrap;rounded=0;" parent="1" vertex="1">
          <mxGeometry x="120" y="-1200" width="60" height="30" as="geometry" />
        </mxCell>
        <mxCell id="AT0Kys5YV0iqG-KPBxFC-10" value="Blocked&lt;span style=&quot;white-space: pre;&quot;&gt;&#x9;&lt;/span&gt;" style="text;strokeColor=none;align=center;fillColor=none;html=1;verticalAlign=middle;whiteSpace=wrap;rounded=0;" parent="1" vertex="1">
          <mxGeometry x="230" y="-1200" width="60" height="30" as="geometry" />
        </mxCell>
        <mxCell id="AT0Kys5YV0iqG-KPBxFC-11" value="Done" style="text;strokeColor=none;align=center;fillColor=none;html=1;verticalAlign=middle;whiteSpace=wrap;rounded=0;" parent="1" vertex="1">
          <mxGeometry x="340" y="-1200" width="60" height="30" as="geometry" />
        </mxCell>
        <mxCell id="AT0Kys5YV0iqG-KPBxFC-13" value="Backend-Architecture&lt;div&gt;&lt;br&gt;&lt;/div&gt;" style="text;strokeColor=none;fillColor=none;html=1;fontSize=24;fontStyle=1;verticalAlign=middle;align=center;" parent="1" vertex="1">
          <mxGeometry x="240" y="-970" width="100" height="40" as="geometry" />
        </mxCell>
        <mxCell id="AT0Kys5YV0iqG-KPBxFC-14" value="&lt;div&gt;Object&lt;/div&gt;" style="text;strokeColor=none;fillColor=none;html=1;fontSize=24;fontStyle=1;verticalAlign=middle;align=center;" parent="1" vertex="1">
          <mxGeometry x="30" y="-900" width="100" height="10" as="geometry" />
        </mxCell>
        <mxCell id="AT0Kys5YV0iqG-KPBxFC-15" value="&lt;b&gt;Item&lt;/b&gt;" style="text;html=1;align=center;verticalAlign=middle;resizable=0;points=[];autosize=1;strokeColor=none;fillColor=none;" parent="1" vertex="1">
          <mxGeometry x="35" y="-882" width="50" height="30" as="geometry" />
        </mxCell>
        <mxCell id="AT0Kys5YV0iqG-KPBxFC-16" value="&lt;b&gt;Status&lt;/b&gt;" style="text;html=1;align=center;verticalAlign=middle;resizable=0;points=[];autosize=1;strokeColor=none;fillColor=none;" parent="1" vertex="1">
          <mxGeometry x="35" y="-860" width="60" height="30" as="geometry" />
        </mxCell>
        <mxCell id="AT0Kys5YV0iqG-KPBxFC-17" value="&lt;b&gt;User&lt;/b&gt;" style="text;html=1;align=center;verticalAlign=middle;resizable=0;points=[];autosize=1;strokeColor=none;fillColor=none;" parent="1" vertex="1">
          <mxGeometry x="35" y="-840" width="50" height="30" as="geometry" />
        </mxCell>
        <mxCell id="AT0Kys5YV0iqG-KPBxFC-18" value="Item" style="swimlane;fontStyle=0;childLayout=stackLayout;horizontal=1;startSize=26;horizontalStack=0;resizeParent=1;resizeParentMax=0;resizeLast=0;collapsible=1;marginBottom=0;align=center;fontSize=14;" parent="1" vertex="1">
          <mxGeometry x="40" y="-770" width="160" height="146" as="geometry" />
        </mxCell>
        <mxCell id="AT0Kys5YV0iqG-KPBxFC-19" value="Id" style="text;strokeColor=none;fillColor=none;spacingLeft=4;spacingRight=4;overflow=hidden;rotatable=0;points=[[0,0.5],[1,0.5]];portConstraint=eastwest;fontSize=12;whiteSpace=wrap;html=1;" parent="AT0Kys5YV0iqG-KPBxFC-18" vertex="1">
          <mxGeometry y="26" width="160" height="30" as="geometry" />
        </mxCell>
        <mxCell id="AT0Kys5YV0iqG-KPBxFC-29" value="Text&lt;div&gt;&lt;br&gt;&lt;/div&gt;" style="text;strokeColor=none;fillColor=none;spacingLeft=4;spacingRight=4;overflow=hidden;rotatable=0;points=[[0,0.5],[1,0.5]];portConstraint=eastwest;fontSize=12;whiteSpace=wrap;html=1;" parent="AT0Kys5YV0iqG-KPBxFC-18" vertex="1">
          <mxGeometry y="56" width="160" height="30" as="geometry" />
        </mxCell>
        <mxCell id="AT0Kys5YV0iqG-KPBxFC-27" value="&lt;div&gt;User-id&lt;/div&gt;" style="text;strokeColor=none;fillColor=none;spacingLeft=4;spacingRight=4;overflow=hidden;rotatable=0;points=[[0,0.5],[1,0.5]];portConstraint=eastwest;fontSize=12;whiteSpace=wrap;html=1;" parent="AT0Kys5YV0iqG-KPBxFC-18" vertex="1">
          <mxGeometry y="86" width="160" height="30" as="geometry" />
        </mxCell>
        <mxCell id="AT0Kys5YV0iqG-KPBxFC-21" value="current-status" style="text;strokeColor=none;fillColor=none;spacingLeft=4;spacingRight=4;overflow=hidden;rotatable=0;points=[[0,0.5],[1,0.5]];portConstraint=eastwest;fontSize=12;whiteSpace=wrap;html=1;" parent="AT0Kys5YV0iqG-KPBxFC-18" vertex="1">
          <mxGeometry y="116" width="160" height="30" as="geometry" />
        </mxCell>
        <mxCell id="AT0Kys5YV0iqG-KPBxFC-30" value="User" style="swimlane;fontStyle=0;childLayout=stackLayout;horizontal=1;startSize=26;horizontalStack=0;resizeParent=1;resizeParentMax=0;resizeLast=0;collapsible=1;marginBottom=0;align=center;fontSize=14;" parent="1" vertex="1">
          <mxGeometry x="310" y="-770" width="160" height="104" as="geometry" />
        </mxCell>
        <mxCell id="AT0Kys5YV0iqG-KPBxFC-31" value="Id" style="text;strokeColor=none;fillColor=none;spacingLeft=4;spacingRight=4;overflow=hidden;rotatable=0;points=[[0,0.5],[1,0.5]];portConstraint=eastwest;fontSize=12;whiteSpace=wrap;html=1;" parent="AT0Kys5YV0iqG-KPBxFC-30" vertex="1">
          <mxGeometry y="26" width="160" height="30" as="geometry" />
        </mxCell>
        <mxCell id="AT0Kys5YV0iqG-KPBxFC-32" value="&lt;div&gt;Name&lt;/div&gt;" style="text;strokeColor=none;fillColor=none;spacingLeft=4;spacingRight=4;overflow=hidden;rotatable=0;points=[[0,0.5],[1,0.5]];portConstraint=eastwest;fontSize=12;whiteSpace=wrap;html=1;" parent="AT0Kys5YV0iqG-KPBxFC-30" vertex="1">
          <mxGeometry y="56" width="160" height="24" as="geometry" />
        </mxCell>
        <mxCell id="AT0Kys5YV0iqG-KPBxFC-45" value="List&amp;lt;Item&amp;gt; items" style="text;strokeColor=none;fillColor=none;spacingLeft=4;spacingRight=4;overflow=hidden;rotatable=0;points=[[0,0.5],[1,0.5]];portConstraint=eastwest;fontSize=12;whiteSpace=wrap;html=1;" parent="AT0Kys5YV0iqG-KPBxFC-30" vertex="1">
          <mxGeometry y="80" width="160" height="24" as="geometry" />
        </mxCell>
        <mxCell id="AT0Kys5YV0iqG-KPBxFC-36" value="Status" style="swimlane;fontStyle=0;childLayout=stackLayout;horizontal=1;startSize=26;horizontalStack=0;resizeParent=1;resizeParentMax=0;resizeLast=0;collapsible=1;marginBottom=0;align=center;fontSize=14;" parent="1" vertex="1">
          <mxGeometry x="630" y="-710" width="160" height="86" as="geometry" />
        </mxCell>
        <mxCell id="AT0Kys5YV0iqG-KPBxFC-37" value="Id" style="text;strokeColor=none;fillColor=none;spacingLeft=4;spacingRight=4;overflow=hidden;rotatable=0;points=[[0,0.5],[1,0.5]];portConstraint=eastwest;fontSize=12;whiteSpace=wrap;html=1;" parent="AT0Kys5YV0iqG-KPBxFC-36" vertex="1">
          <mxGeometry y="26" width="160" height="30" as="geometry" />
        </mxCell>
        <mxCell id="AT0Kys5YV0iqG-KPBxFC-38" value="status" style="text;strokeColor=none;fillColor=none;spacingLeft=4;spacingRight=4;overflow=hidden;rotatable=0;points=[[0,0.5],[1,0.5]];portConstraint=eastwest;fontSize=12;whiteSpace=wrap;html=1;" parent="AT0Kys5YV0iqG-KPBxFC-36" vertex="1">
          <mxGeometry y="56" width="160" height="30" as="geometry" />
        </mxCell>
        <mxCell id="AT0Kys5YV0iqG-KPBxFC-39" value="" style="edgeStyle=entityRelationEdgeStyle;fontSize=12;html=1;endArrow=ERone;endFill=1;rounded=0;entryX=0;entryY=0.5;entryDx=0;entryDy=0;" parent="1" target="AT0Kys5YV0iqG-KPBxFC-31" edge="1">
          <mxGeometry width="100" height="100" relative="1" as="geometry">
            <mxPoint x="200" y="-670" as="sourcePoint" />
            <mxPoint x="300" y="-770" as="targetPoint" />
            <Array as="points">
              <mxPoint x="280" y="-720" />
            </Array>
          </mxGeometry>
        </mxCell>
        <mxCell id="AT0Kys5YV0iqG-KPBxFC-40" value="" style="edgeStyle=entityRelationEdgeStyle;fontSize=12;html=1;endArrow=ERone;endFill=1;rounded=0;entryX=0;entryY=0.5;entryDx=0;entryDy=0;" parent="1" target="AT0Kys5YV0iqG-KPBxFC-37" edge="1">
          <mxGeometry width="100" height="100" relative="1" as="geometry">
            <mxPoint x="200" y="-640" as="sourcePoint" />
            <mxPoint x="300" y="-740" as="targetPoint" />
          </mxGeometry>
        </mxCell>
        <mxCell id="AT0Kys5YV0iqG-KPBxFC-43" value="Update-Status" style="text;html=1;align=center;verticalAlign=middle;resizable=0;points=[];autosize=1;strokeColor=none;fillColor=none;" parent="1" vertex="1">
          <mxGeometry x="40" y="-602" width="100" height="30" as="geometry" />
        </mxCell>
        <mxCell id="AT0Kys5YV0iqG-KPBxFC-48" value="" style="image;html=1;image=img/lib/clip_art/people/Suit_Man_128x128.png" parent="1" vertex="1">
          <mxGeometry x="20" y="-540" width="80" height="80" as="geometry" />
        </mxCell>
        <object placeholders="1" c4Type="Relationship" id="AT0Kys5YV0iqG-KPBxFC-52">
          <mxCell style="endArrow=blockThin;html=1;fontSize=10;fontColor=#404040;strokeWidth=1;endFill=1;strokeColor=#828282;elbow=vertical;metaEdit=1;endSize=14;startSize=14;jumpStyle=arc;jumpSize=16;rounded=0;edgeStyle=orthogonalEdgeStyle;" parent="1" target="AT0Kys5YV0iqG-KPBxFC-53" edge="1">
            <mxGeometry width="240" relative="1" as="geometry">
              <mxPoint x="300" y="-600" as="sourcePoint" />
              <mxPoint x="540" y="-600" as="targetPoint" />
            </mxGeometry>
          </mxCell>
        </object>
        <object placeholders="1" c4Name="[Containers] Diagram title" c4Type="ContainerDiagramTitle" c4Description="Diagram short description" label="&lt;font style=&quot;font-size: 16px&quot;&gt;&lt;b&gt;&lt;div style=&quot;text-align: left&quot;&gt;%c4Name%&lt;/div&gt;&lt;/b&gt;&lt;/font&gt;&lt;div style=&quot;text-align: left&quot;&gt;%c4Description%&lt;/div&gt;" id="AT0Kys5YV0iqG-KPBxFC-53">
          <mxCell style="text;html=1;strokeColor=none;fillColor=none;align=left;verticalAlign=top;whiteSpace=wrap;rounded=0;metaEdit=1;allowArrows=0;resizable=1;rotatable=0;connectable=0;recursiveResize=0;expand=0;pointerEvents=0;points=[[0.25,0,0],[0.5,0,0],[0.75,0,0],[1,0.25,0],[1,0.5,0],[1,0.75,0],[0.75,1,0],[0.5,1,0],[0.25,1,0],[0,0.75,0],[0,0.5,0],[0,0.25,0]];" parent="1" vertex="1">
            <mxGeometry x="410" y="-620" width="260" height="40" as="geometry" />
          </mxCell>
        </object>
        <mxCell id="Ggmb4g24JVobU0Px0jI8-1" value="&lt;b&gt;&lt;font style=&quot;font-size: 20px;&quot;&gt;Authentication Flow&lt;/font&gt;&lt;/b&gt;" style="text;html=1;align=center;verticalAlign=middle;resizable=0;points=[];autosize=1;strokeColor=none;fillColor=none;" vertex="1" parent="1">
          <mxGeometry x="280" y="-417" width="210" height="40" as="geometry" />
        </mxCell>
        <mxCell id="Ggmb4g24JVobU0Px0jI8-2" value="" style="endArrow=none;dashed=1;html=1;dashPattern=1 3;strokeWidth=2;rounded=0;" edge="1" parent="1">
          <mxGeometry width="50" height="50" relative="1" as="geometry">
            <mxPoint x="120" y="60" as="sourcePoint" />
            <mxPoint x="120" y="-320" as="targetPoint" />
          </mxGeometry>
        </mxCell>
        <mxCell id="Ggmb4g24JVobU0Px0jI8-3" value="" style="endArrow=none;dashed=1;html=1;dashPattern=1 3;strokeWidth=2;rounded=0;" edge="1" parent="1">
          <mxGeometry width="50" height="50" relative="1" as="geometry">
            <mxPoint x="640" y="50" as="sourcePoint" />
            <mxPoint x="640" y="-330" as="targetPoint" />
          </mxGeometry>
        </mxCell>
        <mxCell id="Ggmb4g24JVobU0Px0jI8-4" value="" style="endArrow=none;dashed=1;html=1;dashPattern=1 3;strokeWidth=2;rounded=0;" edge="1" parent="1">
          <mxGeometry width="50" height="50" relative="1" as="geometry">
            <mxPoint x="360" y="50" as="sourcePoint" />
            <mxPoint x="360" y="-330" as="targetPoint" />
          </mxGeometry>
        </mxCell>
        <mxCell id="Ggmb4g24JVobU0Px0jI8-5" value="Client" style="text;html=1;align=center;verticalAlign=middle;resizable=0;points=[];autosize=1;strokeColor=none;fillColor=none;" vertex="1" parent="1">
          <mxGeometry x="100" y="-362" width="50" height="30" as="geometry" />
        </mxCell>
        <mxCell id="Ggmb4g24JVobU0Px0jI8-6" value="API Gateway" style="text;html=1;align=center;verticalAlign=middle;resizable=0;points=[];autosize=1;strokeColor=none;fillColor=none;" vertex="1" parent="1">
          <mxGeometry x="320" y="-362" width="90" height="30" as="geometry" />
        </mxCell>
        <mxCell id="Ggmb4g24JVobU0Px0jI8-7" value="Auth Service" style="text;html=1;align=center;verticalAlign=middle;resizable=0;points=[];autosize=1;strokeColor=none;fillColor=none;" vertex="1" parent="1">
          <mxGeometry x="600" y="-362" width="90" height="30" as="geometry" />
        </mxCell>
        <mxCell id="Ggmb4g24JVobU0Px0jI8-8" value="" style="endArrow=none;dashed=1;html=1;dashPattern=1 3;strokeWidth=2;rounded=0;" edge="1" parent="1">
          <mxGeometry width="50" height="50" relative="1" as="geometry">
            <mxPoint x="840" y="40" as="sourcePoint" />
            <mxPoint x="840" y="-340" as="targetPoint" />
          </mxGeometry>
        </mxCell>
        <mxCell id="Ggmb4g24JVobU0Px0jI8-9" value="Task Forge" style="text;html=1;align=center;verticalAlign=middle;resizable=0;points=[];autosize=1;strokeColor=none;fillColor=none;" vertex="1" parent="1">
          <mxGeometry x="795" y="-370" width="80" height="30" as="geometry" />
        </mxCell>
      </root>
    </mxGraphModel>
  </diagram>
  <diagram id="Sw_8w4otXcI63Lc46Eo2" name="Observer- Design">
    <mxGraphModel dx="1036" dy="606" grid="1" gridSize="10" guides="1" tooltips="1" connect="1" arrows="1" fold="1" page="1" pageScale="1" pageWidth="850" pageHeight="1100" math="0" shadow="0">
      <root>
        <mxCell id="0" />
        <mxCell id="1" parent="0" />
        <mxCell id="abZgdsXj1235P2JdPMLF-9" value="" style="verticalLabelPosition=bottom;verticalAlign=top;html=1;shadow=0;dashed=0;strokeWidth=1;shape=mxgraph.android.phone2;strokeColor=#c0c0c0;" vertex="1" parent="1">
          <mxGeometry x="50" y="130" width="160" height="260" as="geometry" />
        </mxCell>
        <mxCell id="abZgdsXj1235P2JdPMLF-10" value="" style="verticalLabelPosition=bottom;verticalAlign=top;html=1;shadow=0;dashed=0;strokeWidth=1;shape=mxgraph.android.contact_badge_normal;sketch=0;" vertex="1" parent="1">
          <mxGeometry x="425" y="260" width="55" height="70" as="geometry" />
        </mxCell>
        <mxCell id="abZgdsXj1235P2JdPMLF-13" value="Iphone" style="ellipse;whiteSpace=wrap;html=1;align=center;dashed=1;" vertex="1" parent="1">
          <mxGeometry x="60" y="170" width="100" height="40" as="geometry" />
        </mxCell>
        <mxCell id="abZgdsXj1235P2JdPMLF-15" value="Notify me" style="text;html=1;align=center;verticalAlign=middle;resizable=0;points=[];autosize=1;strokeColor=none;fillColor=none;" vertex="1" parent="1">
          <mxGeometry x="75" y="230" width="70" height="30" as="geometry" />
        </mxCell>
        <mxCell id="abZgdsXj1235P2JdPMLF-16" value="" style="verticalLabelPosition=bottom;verticalAlign=top;html=1;shadow=0;dashed=0;strokeWidth=1;shape=mxgraph.android.tab2;strokeColor=#c0c0c0;direction=north;" vertex="1" parent="1">
          <mxGeometry x="57.5" y="150" width="145" height="120" as="geometry" />
        </mxCell>
        <mxCell id="abZgdsXj1235P2JdPMLF-17" value="" style="endArrow=block;startArrow=none;endFill=0;startFill=0;endSize=8;html=1;verticalAlign=bottom;dashed=1;labelBackgroundColor=none;rounded=0;entryX=0.167;entryY=0.293;entryDx=0;entryDy=0;entryPerimeter=0;" edge="1" parent="1" target="abZgdsXj1235P2JdPMLF-16">
          <mxGeometry width="160" relative="1" as="geometry">
            <mxPoint x="420" y="320" as="sourcePoint" />
            <mxPoint x="290" y="280" as="targetPoint" />
          </mxGeometry>
        </mxCell>
        <mxCell id="abZgdsXj1235P2JdPMLF-18" value="&lt;p style=&quot;line-height: 120%; font-size: 14px;&quot;&gt;&lt;b&gt;Functional Requirement&lt;/b&gt;&lt;/p&gt;" style="text;html=1;align=center;verticalAlign=middle;resizable=0;points=[];autosize=1;strokeColor=none;fillColor=none;" vertex="1" parent="1">
          <mxGeometry x="270" y="443" width="180" height="60" as="geometry" />
        </mxCell>
        <mxCell id="abZgdsXj1235P2JdPMLF-21" value="Observable" style="ellipse;shape=doubleEllipse;whiteSpace=wrap;html=1;" vertex="1" parent="1">
          <mxGeometry x="80" y="560" width="100" height="60" as="geometry" />
        </mxCell>
        <mxCell id="abZgdsXj1235P2JdPMLF-22" value="Observer" style="ellipse;shape=doubleEllipse;whiteSpace=wrap;html=1;" vertex="1" parent="1">
          <mxGeometry x="520" y="560" width="100" height="60" as="geometry" />
        </mxCell>
        <mxCell id="abZgdsXj1235P2JdPMLF-27" value="" style="endArrow=block;startArrow=none;endFill=0;startFill=0;endSize=8;html=1;verticalAlign=bottom;dashed=1;labelBackgroundColor=none;rounded=0;entryX=0.8;entryY=0;entryDx=0;entryDy=0;entryPerimeter=0;" edge="1" parent="1" target="abZgdsXj1235P2JdPMLF-21">
          <mxGeometry width="160" relative="1" as="geometry">
            <mxPoint x="280" y="480" as="sourcePoint" />
            <mxPoint x="440" y="480" as="targetPoint" />
          </mxGeometry>
        </mxCell>
        <mxCell id="abZgdsXj1235P2JdPMLF-28" value="" style="endArrow=block;startArrow=none;endFill=0;startFill=0;endSize=8;html=1;verticalAlign=bottom;dashed=1;labelBackgroundColor=none;rounded=0;" edge="1" parent="1" target="abZgdsXj1235P2JdPMLF-22">
          <mxGeometry width="160" relative="1" as="geometry">
            <mxPoint x="360" y="480" as="sourcePoint" />
            <mxPoint x="240" y="550" as="targetPoint" />
            <Array as="points">
              <mxPoint x="360" y="480" />
            </Array>
          </mxGeometry>
        </mxCell>
        <mxCell id="abZgdsXj1235P2JdPMLF-29" value="if any stock state of observable item&lt;div&gt;will change then it will update to observer&lt;div&gt;&lt;br&gt;&lt;/div&gt;&lt;/div&gt;" style="text;html=1;align=center;verticalAlign=middle;resizable=0;points=[];autosize=1;strokeColor=none;fillColor=none;" vertex="1" parent="1">
          <mxGeometry x="40" y="620" width="240" height="60" as="geometry" />
        </mxCell>
        <mxCell id="abZgdsXj1235P2JdPMLF-31" value="Observer Interface" style="swimlane;whiteSpace=wrap;html=1;" vertex="1" parent="1">
          <mxGeometry x="500" y="630" width="200" height="200" as="geometry" />
        </mxCell>
        <mxCell id="abZgdsXj1235P2JdPMLF-32" value="Observable Interface" style="swimlane;whiteSpace=wrap;html=1;" vertex="1" parent="1">
          <mxGeometry x="40" y="670" width="200" height="200" as="geometry" />
        </mxCell>
        <mxCell id="abZgdsXj1235P2JdPMLF-38" value="addObserver()/ CRUD&lt;div&gt;&lt;br&gt;&lt;/div&gt;" style="text;html=1;align=center;verticalAlign=middle;resizable=0;points=[];autosize=1;strokeColor=none;fillColor=none;" vertex="1" parent="abZgdsXj1235P2JdPMLF-32">
          <mxGeometry x="5" y="60" width="140" height="40" as="geometry" />
        </mxCell>
        <mxCell id="abZgdsXj1235P2JdPMLF-40" value="notify()" style="text;html=1;align=center;verticalAlign=middle;resizable=0;points=[];autosize=1;strokeColor=none;fillColor=none;" vertex="1" parent="abZgdsXj1235P2JdPMLF-32">
          <mxGeometry x="10" y="80" width="60" height="30" as="geometry" />
        </mxCell>
        <mxCell id="abZgdsXj1235P2JdPMLF-41" value="setData()" style="text;html=1;align=center;verticalAlign=middle;resizable=0;points=[];autosize=1;strokeColor=none;fillColor=none;" vertex="1" parent="abZgdsXj1235P2JdPMLF-32">
          <mxGeometry x="5" y="100" width="70" height="30" as="geometry" />
        </mxCell>
        <mxCell id="abZgdsXj1235P2JdPMLF-42" value="List&amp;lt;Observer&amp;gt; observerList" style="text;html=1;align=center;verticalAlign=middle;resizable=0;points=[];autosize=1;strokeColor=none;fillColor=none;" vertex="1" parent="abZgdsXj1235P2JdPMLF-32">
          <mxGeometry x="5" y="28" width="170" height="30" as="geometry" />
        </mxCell>
        <mxCell id="abZgdsXj1235P2JdPMLF-37" value="update()" style="text;html=1;align=center;verticalAlign=middle;resizable=0;points=[];autosize=1;strokeColor=none;fillColor=none;" vertex="1" parent="1">
          <mxGeometry x="495" y="658" width="70" height="30" as="geometry" />
        </mxCell>
        <mxCell id="abZgdsXj1235P2JdPMLF-43" value="" style="endArrow=block;startArrow=none;endFill=0;startFill=0;endSize=8;html=1;verticalAlign=bottom;dashed=1;labelBackgroundColor=none;rounded=0;" edge="1" parent="1" source="abZgdsXj1235P2JdPMLF-44">
          <mxGeometry width="160" relative="1" as="geometry">
            <mxPoint x="370" y="710" as="sourcePoint" />
            <mxPoint x="210" y="710" as="targetPoint" />
          </mxGeometry>
        </mxCell>
        <mxCell id="abZgdsXj1235P2JdPMLF-45" value="" style="endArrow=block;startArrow=none;endFill=0;startFill=0;endSize=8;html=1;verticalAlign=bottom;dashed=1;labelBackgroundColor=none;rounded=0;" edge="1" parent="1" source="abZgdsXj1235P2JdPMLF-37" target="abZgdsXj1235P2JdPMLF-44">
          <mxGeometry width="160" relative="1" as="geometry">
            <mxPoint x="495" y="677" as="sourcePoint" />
            <mxPoint x="210" y="710" as="targetPoint" />
          </mxGeometry>
        </mxCell>
        <mxCell id="abZgdsXj1235P2JdPMLF-44" value="HAS-A" style="text;html=1;align=center;verticalAlign=middle;resizable=0;points=[];autosize=1;strokeColor=none;fillColor=none;" vertex="1" parent="1">
          <mxGeometry x="320" y="680" width="60" height="30" as="geometry" />
        </mxCell>
      </root>
    </mxGraphModel>
  </diagram>
  <diagram id="QBxWxpX879PUtRTdJaFx" name="Tic-Tac_toe">
    <mxGraphModel dx="1036" dy="606" grid="1" gridSize="10" guides="1" tooltips="1" connect="1" arrows="1" fold="1" page="1" pageScale="1" pageWidth="850" pageHeight="1100" math="0" shadow="0">
      <root>
        <mxCell id="0" />
        <mxCell id="1" parent="0" />
        <mxCell id="U3lkeGv2_Ax2H6C5PySl-1" value="&lt;b&gt;&lt;font style=&quot;font-size: 28px;&quot;&gt;Desgin Tic Tac Toe&lt;/font&gt;&lt;/b&gt;" style="text;html=1;align=center;verticalAlign=middle;resizable=0;points=[];autosize=1;strokeColor=none;fillColor=none;" vertex="1" parent="1">
          <mxGeometry x="250" y="40" width="270" height="50" as="geometry" />
        </mxCell>
        <mxCell id="U3lkeGv2_Ax2H6C5PySl-2" value="Functional Requiement" style="text;html=1;align=center;verticalAlign=middle;resizable=0;points=[];autosize=1;strokeColor=none;fillColor=none;" vertex="1" parent="1">
          <mxGeometry x="20" y="118" width="150" height="30" as="geometry" />
        </mxCell>
        <mxCell id="U3lkeGv2_Ax2H6C5PySl-8" value="&lt;ul&gt;&lt;li&gt;we should have standard grid (3 X 3)&lt;/li&gt;&lt;/ul&gt;" style="text;html=1;align=center;verticalAlign=middle;resizable=0;points=[];autosize=1;strokeColor=none;fillColor=none;" vertex="1" parent="1">
          <mxGeometry x="40" y="128" width="260" height="50" as="geometry" />
        </mxCell>
        <mxCell id="U3lkeGv2_Ax2H6C5PySl-9" value="&lt;ul&gt;&lt;li&gt;two player takes turn and marking the space with X and O&lt;/li&gt;&lt;/ul&gt;" style="text;html=1;align=center;verticalAlign=middle;resizable=0;points=[];autosize=1;strokeColor=none;fillColor=none;" vertex="1" parent="1">
          <mxGeometry x="40" y="148" width="370" height="50" as="geometry" />
        </mxCell>
        <mxCell id="U3lkeGv2_Ax2H6C5PySl-10" value="&lt;ul&gt;&lt;li&gt;the game continues untill&lt;br&gt;&lt;/li&gt;&lt;li&gt;one player get three of thier mark row (horizontal ,column , diagonal)&lt;/li&gt;&lt;/ul&gt;" style="text;html=1;align=center;verticalAlign=middle;resizable=0;points=[];autosize=1;strokeColor=none;fillColor=none;" vertex="1" parent="1">
          <mxGeometry x="40" y="168" width="430" height="70" as="geometry" />
        </mxCell>
        <mxCell id="U3lkeGv2_Ax2H6C5PySl-11" value="the game is completely filled with resuting in draw" style="text;html=1;align=center;verticalAlign=middle;resizable=0;points=[];autosize=1;strokeColor=none;fillColor=none;" vertex="1" parent="1">
          <mxGeometry x="70" y="230" width="290" height="30" as="geometry" />
        </mxCell>
      </root>
    </mxGraphModel>
  </diagram>
</mxfile>
